<?xml version="1.0" encoding="UTF-8" standalone="no"?>
<!-- Created with Inkscape (http://www.inkscape.org/) -->

<svg
   width="600mm"
   height="200mm"
   viewBox="0 0 600 200"
   version="1.1"
   id="svg1"
   sodipodi:docname="chess_clock_enclosure.svg"
   inkscape:version="1.3.2 (091e20e, 2023-11-25)"
   xmlns:inkscape="http://www.inkscape.org/namespaces/inkscape"
   xmlns:sodipodi="http://sodipodi.sourceforge.net/DTD/sodipodi-0.dtd"
   xmlns="http://www.w3.org/2000/svg"
   xmlns:svg="http://www.w3.org/2000/svg">
  <sodipodi:namedview
     id="namedview1"
     pagecolor="#ffffff"
     bordercolor="#000000"
     borderopacity="0.25"
     inkscape:showpageshadow="2"
     inkscape:pageopacity="0.0"
     inkscape:pagecheckerboard="0"
     inkscape:deskcolor="#d1d1d1"
     inkscape:document-units="mm"
     showgrid="true"
     inkscape:zoom="0.80818901"
     inkscape:cx="429.35501"
     inkscape:cy="483.79772"
     inkscape:window-width="1392"
     inkscape:window-height="1027"
     inkscape:window-x="13"
     inkscape:window-y="25"
     inkscape:window-maximized="0"
     inkscape:current-layer="layer1">
    <inkscape:grid
       id="grid1"
       units="mm"
       originx="0"
       originy="-400"
       spacingx="0.5"
       spacingy="0.5"
       empcolor="#e500bf"
       empopacity="0.30196078"
       color="#0099e5"
       opacity="0.14901961"
       empspacing="10"
       dotted="false"
       gridanglex="30"
       gridanglez="30"
       visible="true" />
  </sodipodi:namedview>
  <defs
     id="defs1" />
  <g
     inkscape:label="Layer 1"
     inkscape:groupmode="layer"
     id="layer1"
     transform="translate(0,-97)">
    <g
       id="g7"
       transform="translate(-19.999997,219.99999)">
      <path
         style="vector-effect:non-scaling-stroke;fill:none;fill-opacity:1;stroke:#000000;stroke-width:0.264583;stroke-linejoin:round;-inkscape-stroke:hairline"
         d="m 519.99999,60.000033 v -13.00003 h -3 v -10 h 3 v -10 h -3 v -10 h 3 V 7.0000027 h -3 v -9.9999998 h 3 V -15.999997 H 360 v 13.0000099 h 3 v 9.9999998 h -3 V 17.000013 h 3 v 10 l -3,-10e-6 v 10 h 3 v 10 h -3 v 13 z"
         id="path1"
         sodipodi:nodetypes="ccccccccccccccccccccccccccccc" />
      <circle
         style="vector-effect:non-scaling-stroke;fill:none;fill-opacity:1;stroke:#000000;stroke-width:0.264583;stroke-linejoin:round;-inkscape-stroke:hairline"
         id="path2"
         cx="-490"
         cy="22.000023"
         r="14.75"
         transform="scale(-1,1)" />
      <circle
         style="vector-effect:non-scaling-stroke;fill:none;fill-opacity:1;stroke:#000000;stroke-width:0.0717513;stroke-linejoin:round;-inkscape-stroke:hairline"
         id="path2-2"
         cx="-460"
         cy="22.000023"
         r="4"
         transform="scale(-1,1)" />
      <circle
         style="vector-effect:non-scaling-stroke;fill:none;fill-opacity:1;stroke:#000000;stroke-width:0.0717513;stroke-linejoin:round;-inkscape-stroke:hairline"
         id="path2-2-5"
         cx="-420"
         cy="22.000023"
         r="4"
         transform="scale(-1,1)" />
      <circle
         style="vector-effect:non-scaling-stroke;fill:none;fill-opacity:1;stroke:#000000;stroke-width:0.264583;stroke-linejoin:round;-inkscape-stroke:hairline"
         id="path2-4"
         cx="-390"
         cy="22.000023"
         r="14.75"
         transform="scale(-1,1)" />
    </g>
    <path
       style="vector-effect:non-scaling-stroke;fill:none;fill-opacity:1;stroke:#000000;stroke-width:0.264583;stroke-linejoin:round;-inkscape-stroke:hairline"
       d="m 19.99727,177.00004 4e-4,-10.00002 -3.00001,8e-5 3.9e-4,-10 2.99999,-8e-5 3.9e-4,-9.99999 -3,8e-5 3.9e-4,-10.00002 2.99999,-9e-5 3.9e-4,-9.99999 -2.99999,8e-5 3.8e-4,-9.99999 3.00002,-8e-5 L 20,107 l 15.000011,-1e-5 v -3 h 10 v 3 h 10 v -3 h 10 v 3 h 10 v -3 h 10 v 3 H 100.00001 V 117 h 3 v 10 h -3 v 10 h 3 v 10 h -3 v 10 h 3 v 10 h -3 v 10 h 3 v 9.99999 h -3 l -7.1e-5,10.00002 h -4.999998 v 3 h -10 v -3 l -5,2.1e-4 -14.23125,-4.74046 -0.9481,2.84625 -9.48748,-3.16033 0.94808,-2.84624 -9.48749,-3.1603 -0.94808,2.84624 -9.48749,-3.1603 0.94809,-2.84625 z"
       id="path3-1-5"
       sodipodi:nodetypes="cccccccccccccccccccccccccccccccccccccccccccccccccccccccccc"
       inkscape:transform-center-x="41.501175"
       inkscape:transform-center-y="46.500005" />
    <path
       style="vector-effect:non-scaling-stroke;fill:none;fill-opacity:1;stroke:#000000;stroke-width:0.264583;stroke-linejoin:round;-inkscape-stroke:hairline"
       d="m 100.00267,216.99997 -4e-4,10.00001 3.00001,-8e-5 -3.9e-4,10 -2.99999,8e-5 -3.9e-4,9.99999 3,-8e-5 -3.9e-4,10.00002 -2.99999,9e-5 -3.9e-4,9.99999 2.99999,-8e-5 -3.8e-4,9.99999 -3.00002,8e-5 -3.89e-4,10.00002 -15.000008,10e-6 v 3 h -10 v -3 h -10 v 3 h -10 v -3 h -10 v 3 h -10 v -3 H 19.99993 V 277 h -2.999999 v -10 h 2.999999 v -10 h -2.999999 v -10 h 2.999999 v -9.99999 h -2.999999 v -10 h 2.999999 v -10 h -2.999999 v -10 H 19.99993 L 20,197 h 5 v -3 h 10.000003 v 3 l 5,-2.2e-4 14.23125,4.74047 0.9481,-2.84625 9.48748,3.16032 -0.94808,2.84624 9.48749,3.1603 0.94808,-2.84624 9.48749,3.16031 -0.94809,2.84624 z"
       id="path3-1-5-5"
       sodipodi:nodetypes="cccccccccccccccccccccccccccccccccccccccccccccccccccccccccc"
       inkscape:transform-center-x="-41.501173"
       inkscape:transform-center-y="-46.500005" />
    <path
       style="vector-effect:non-scaling-stroke;fill:none;fill-opacity:1;stroke:#000000;stroke-width:0.264583;stroke-linejoin:round;-inkscape-stroke:hairline"
       d="m 120,117 v 159.99999 h 5 v -3 h 10 v 3 h 8 v -15 h -3 v -10 h 3 v -10 h -3 v -10 h 3 v -10 h -3 v -10 h 3 v -10 h -3 v -10 h 3 v -10 h -3 V 172 h 3 v -10 h -3 v -10 h 3 v -10 h -3 v -10 h 3 v -15 h -8 v 3 h -10 v -3 z"
       id="path6"
       sodipodi:nodetypes="ccccccccccccccccccccccccccccccccccccccccc" />
    <path
       style="vector-effect:non-scaling-stroke;fill:none;fill-opacity:1;stroke:#000000;stroke-width:0.264583;stroke-linejoin:round;-inkscape-stroke:hairline"
       d="m 250,277.00001 v -15 h 3 v -10 h -3 v -10 h 3 v -10 h -3 v -10 h 3 v -10 h -3 v -10 h 3 v -10 h -3 v -10 h 3 v -9.99999 h -3 v -10 h 3 v -10 h -3 v -10 h 3 V 132.0848 L 250,132 v -15 h -10 v 3 h -10 v -3 h -10 v 3 h -10 v -3 h -10 v 3 h -10 v -3 h -10 v 3 h -10 v -3 h -10 v 15 h -3 v 10 h 3 v 10 h -3 v 10 h 3 v 10 h -3 v 9.99999 h 3 v 10 h -3 v 10 h 3 v 10 h -3 v 10 h 3 v 10 h -3 v 10 h 3 v 10 h -3 v 10 h 3 v 15 h 10 v -3 h 10 v 3 h 10 v -3 h 10 v 3 h 10 v -3 h 10 v 3 h 10 v -3 h 10 v 3 z"
       id="path6-7"
       sodipodi:nodetypes="ccccccccccccccccccccccccccccccccccccccccccccccccccccccccccccccccccccccccccccccccccccccccccccc" />
    <g
       id="g8"
       transform="translate(-73.797871,45.49999)">
      <g
         id="g6"
         transform="rotate(-90,227.50001,104)"
         inkscape:transform-center-x="-31.648692"
         inkscape:transform-center-y="-80.130879">
        <path
           style="vector-effect:non-scaling-stroke;fill:none;fill-opacity:1;stroke:#000000;stroke-width:0.264583;stroke-linejoin:round;-inkscape-stroke:hairline"
           d="m 100,217 h 160 v 15 h -3 v 10 h 3 v 10 h -3 v 10 h 3 v 18.29788 H 100 V 262 h 3 v -10 h -3 v -10 h 3 v -10 h -3 z"
           id="path4-8"
           sodipodi:nodetypes="ccccccccccccccccccccc" />
        <path
           style="vector-effect:non-scaling-stroke;fill:none;fill-opacity:1;stroke:#000000;stroke-width:0.264583;stroke-linejoin:round;-inkscape-stroke:hairline"
           d="m 144.50001,234.49999 h 71 V 258.5 h -71 v -24.00001"
           id="path2-5" />
        <circle
           style="vector-effect:non-scaling-stroke;fill:none;fill-opacity:1;stroke:#000000;stroke-width:0.264583;stroke-linejoin:round;-inkscape-stroke:hairline"
           id="path3-8"
           cx="142.5"
           cy="-231.49997"
           r="1.5"
           transform="scale(1,-1)" />
        <circle
           style="vector-effect:non-scaling-stroke;fill:none;fill-opacity:1;stroke:#000000;stroke-width:0.264583;stroke-linejoin:round;-inkscape-stroke:hairline"
           id="path3-3"
           cx="142.5"
           cy="-262.5"
           r="1.5"
           transform="scale(1,-1)" />
        <circle
           style="vector-effect:non-scaling-stroke;fill:none;fill-opacity:1;stroke:#000000;stroke-width:0.264583;stroke-linejoin:round;-inkscape-stroke:hairline"
           id="path3-3-1"
           cx="217.5"
           cy="-262.5"
           r="1.5"
           transform="scale(1,-1)" />
        <circle
           style="vector-effect:non-scaling-stroke;fill:none;fill-opacity:1;stroke:#000000;stroke-width:0.264583;stroke-linejoin:round;-inkscape-stroke:hairline"
           id="path3-3-6"
           cx="217.5"
           cy="-231.5"
           r="1.5"
           transform="scale(1,-1)" />
      </g>
      <circle
         style="vector-effect:non-scaling-stroke;fill:none;fill-opacity:1;stroke:#000000;stroke-width:0.264583;stroke-linejoin:round;-inkscape-stroke:hairline"
         id="path7"
         cx="370"
         cy="205.5"
         r="3.5" />
    </g>
    <path
       style="vector-effect:non-scaling-stroke;fill:none;fill-opacity:1;stroke:#000000;stroke-width:0.264583;stroke-linejoin:round;-inkscape-stroke:hairline"
       d="m 340,112 h 160 v 15 h -3 v 10 h 3 v 10 h -3 v 10 h 3 v 10 h -3 v 10 h 3 v 18 h -15 v -3 h -10 v 3 h -10 v -3 h -10 v 3 h -10 v -3 h -10 v 3 h -10 v -3 h -10 v 3 h -10 v -3 h -10 v 3 h -10 v -3 h -10 v 3 h -10 v -3 h -10 v 3 h -15 v -18 h 3 v -10 h -3 v -10 h 3 v -10 h -3 v -10 h 3 v -10 h -3 z"
       id="path8"
       sodipodi:nodetypes="ccccccccccccccccccccccccccccccccccccccccccccccccccccccccc" />
    <path
       style="vector-effect:non-scaling-stroke;fill:none;fill-opacity:1;stroke:#000000;stroke-width:0.264583;stroke-linejoin:round;-inkscape-stroke:hairline"
       d="m 458,175 h 12 v -10.99998 h -12 z"
       id="path9" />
  </g>
</svg>
